<svg xmlns="http://www.w3.org/2000/svg" viewBox="0 0 52 48"><defs><style>.cls-1{fill:#fff;}</style></defs><g id="Camada_2" data-name="Camada 2"><g id="Camada_1-2" data-name="Camada 1"><g id="Camada_2-2" data-name="Camada 2"><g id="Camada_1-2-2" data-name="Camada 1-2"><g id="Camada_2-2-2" data-name="Camada 2-2"><g id="Camada_1-2-2-2" data-name="Camada 1-2-2"><path class="cls-1" d="M44.7,26.26a2.74,2.74,0,0,0-1.93.8A2.64,2.64,0,0,0,42,29v3.48a10.1,10.1,0,0,1-3,7.14,10.3,10.3,0,0,1-7.19,3H15.65a10.3,10.3,0,0,1-7.19-3,10.1,10.1,0,0,1-3-7.14v-16a10.07,10.07,0,0,1,3-7.14,10.22,10.22,0,0,1,7.19-3H27a2.74,2.74,0,0,0,1.93-.8,2.7,2.7,0,0,0,0-3.82h0A2.69,2.69,0,0,0,27,.91H15.65A15.69,15.69,0,0,0,4.59,5.46,15.49,15.49,0,0,0,0,16.44v16a15.47,15.47,0,0,0,4.59,11A15.7,15.7,0,0,0,15.65,48H31.79A15.62,15.62,0,0,0,47.44,32.46V29A2.76,2.76,0,0,0,44.7,26.26Z"/><path class="cls-1" d="M51.47,11.4,40.52.53A1.75,1.75,0,0,0,38.58.14,1.79,1.79,0,0,0,37.45,1.8V7.33C26,8.38,22.86,19.4,22.86,25.33a1.83,1.83,0,0,0,.48,1.23,1.87,1.87,0,0,0,1.19.58h.15a1.83,1.83,0,0,0,1.8-1.51c1.18-7,7.85-7.72,11-7.67v5.56a1.81,1.81,0,0,0,.31,1,1.85,1.85,0,0,0,.82.67,1.81,1.81,0,0,0,1.94-.39L51.47,14a1.8,1.8,0,0,0,0-2.55h0Z"/></g></g></g></g></g></g></svg>