<svg xmlns="http://www.w3.org/2000/svg" viewBox="0 0 164.65 51.89"><defs><style>.cls-1{fill:#2d2d2d;}</style></defs><g id="Camada_2" data-name="Camada 2"><g id="Camada_1-2" data-name="Camada 1"><path class="cls-1" d="M65.69,4.83V7.39h4.13V9.76H65.69v2.77h4.67V15H62.62V2.36h7.74V4.83Zm12.78,0A3.58,3.58,0,0,1,81.28,6a4.4,4.4,0,0,1,1.06,3.13V15H79.28V9.55A2.19,2.19,0,0,0,78.76,8a1.83,1.83,0,0,0-1.4-.56A1.85,1.85,0,0,0,76,8a2.23,2.23,0,0,0-.52,1.57V15H72.35V5h3.08V6.29a3.18,3.18,0,0,1,1.26-1A4,4,0,0,1,78.47,4.85ZM83.87,10a5.69,5.69,0,0,1,.63-2.74,4.53,4.53,0,0,1,1.78-1.8,5.41,5.41,0,0,1,2.63-.63,4.94,4.94,0,0,1,3.15,1,4.7,4.7,0,0,1,1.68,2.79H90.46a1.69,1.69,0,0,0-2.95-.48A3,3,0,0,0,87,10a3.08,3.08,0,0,0,.51,1.89,1.61,1.61,0,0,0,1.35.65,1.58,1.58,0,0,0,1.6-1.16h3.28a4.8,4.8,0,0,1-1.68,2.78,4.93,4.93,0,0,1-3.15,1,5.41,5.41,0,0,1-2.63-.63,4.53,4.53,0,0,1-1.78-1.8A5.67,5.67,0,0,1,83.87,10ZM105.3,5V15h-3.08V13.63a3.32,3.32,0,0,1-1.28,1.08,3.77,3.77,0,0,1-1.76.4,4,4,0,0,1-2-.51,3.42,3.42,0,0,1-1.37-1.49,5,5,0,0,1-.49-2.29V5h3.06v5.45A2.27,2.27,0,0,0,98.87,12a2.1,2.1,0,0,0,2.83,0,2.22,2.22,0,0,0,.52-1.57V5Zm5.29,1.67a4.08,4.08,0,0,1,1.35-1.3,3.46,3.46,0,0,1,1.8-.48V8.11h-.85a2.51,2.51,0,0,0-1.72.5,2.14,2.14,0,0,0-.58,1.73V15h-3.08V5h3.08Zm10.22,5.76V15h-1.57a3.88,3.88,0,0,1-2.61-.81,3.43,3.43,0,0,1-.93-2.68v-4h-1.23V5h1.23V2.51h3.07V5h2V7.51h-2v4a.86.86,0,0,0,.22.65,1.05,1.05,0,0,0,.72.2Zm1.1-2.43a6,6,0,0,1,.58-2.72,4.39,4.39,0,0,1,1.6-1.8,4.15,4.15,0,0,1,2.25-.63,3.89,3.89,0,0,1,1.85.43,3.12,3.12,0,0,1,1.24,1.14V5h3.08V15h-3.08V13.58a3.3,3.3,0,0,1-1.26,1.13,3.75,3.75,0,0,1-1.85.43,4.11,4.11,0,0,1-2.23-.63,4.49,4.49,0,0,1-1.6-1.81A6.16,6.16,0,0,1,121.91,10Zm7.52,0a2.5,2.5,0,0,0-.64-1.82,2.07,2.07,0,0,0-1.55-.67,2.13,2.13,0,0,0-1.57.67A2.47,2.47,0,0,0,125,10a2.62,2.62,0,0,0,.63,1.84,2.12,2.12,0,0,0,1.57.66,2.06,2.06,0,0,0,1.55-.66A2.51,2.51,0,0,0,129.43,10Zm4.7,0a6.15,6.15,0,0,1,.57-2.72,4.46,4.46,0,0,1,1.6-1.8,4.2,4.2,0,0,1,2.25-.63,3.82,3.82,0,0,1,1.8.42,3.15,3.15,0,0,1,1.3,1.11V1.68h3.08V15h-3.08V13.56a3.14,3.14,0,0,1-1.24,1.15,3.81,3.81,0,0,1-1.86.43,4.2,4.2,0,0,1-2.25-.63,4.56,4.56,0,0,1-1.6-1.81A6.3,6.3,0,0,1,134.13,10Zm7.52,0A2.5,2.5,0,0,0,141,8.16a2.05,2.05,0,0,0-1.54-.67,2.12,2.12,0,0,0-1.57.67,2.47,2.47,0,0,0-.63,1.8,2.62,2.62,0,0,0,.63,1.84,2.11,2.11,0,0,0,1.57.66A2,2,0,0,0,141,11.8,2.52,2.52,0,0,0,141.65,10Zm9.88,5.16a5.63,5.63,0,0,1-2.67-.63,4.71,4.71,0,0,1-1.85-1.8,5.47,5.47,0,0,1-.67-2.73A5.26,5.26,0,0,1,147,7.26a4.61,4.61,0,0,1,1.87-1.82,6,6,0,0,1,5.33,0,4.68,4.68,0,0,1,1.87,1.82,5.26,5.26,0,0,1,.68,2.72,5.23,5.23,0,0,1-.7,2.73,4.56,4.56,0,0,1-1.89,1.8A5.59,5.59,0,0,1,151.53,15.14Zm0-2.66a2,2,0,0,0,1.49-.65,2.54,2.54,0,0,0,.63-1.85A2.61,2.61,0,0,0,153,8.12a2,2,0,0,0-3,0,2.6,2.6,0,0,0-.59,1.86,2.71,2.71,0,0,0,.57,1.85A1.94,1.94,0,0,0,151.53,12.48Zm10-5.85a4,4,0,0,1,1.36-1.3,3.44,3.44,0,0,1,1.8-.48V8.11h-.85a2.55,2.55,0,0,0-1.73.5,2.18,2.18,0,0,0-.58,1.73V15h-3.07V5h3.07ZM68.81,45.19a8.17,8.17,0,0,1-3.28-.64,5.59,5.59,0,0,1-2.26-1.8,4.68,4.68,0,0,1-.84-2.68H65a3.41,3.41,0,0,0,1.06,2.2,3.93,3.93,0,0,0,2.75.88,4,4,0,0,0,2.7-.85,2.81,2.81,0,0,0,1-2.23,2.49,2.49,0,0,0-.58-1.72,3.79,3.79,0,0,0-1.46-1,21.38,21.38,0,0,0-2.36-.74,22.79,22.79,0,0,1-2.94-1,5,5,0,0,1-1.88-1.49,4.53,4.53,0,0,1-.77-2.75,4.78,4.78,0,0,1,.77-2.68,5,5,0,0,1,2.15-1.8,7.56,7.56,0,0,1,3.2-.64,6.6,6.6,0,0,1,4.24,1.3A4.75,4.75,0,0,1,74.77,31H72.12A2.76,2.76,0,0,0,71,29.18a3.9,3.9,0,0,0-2.6-.82,3.73,3.73,0,0,0-2.46.79,2.64,2.64,0,0,0-1,2.18A2.39,2.39,0,0,0,65.55,33,4,4,0,0,0,67,34c.56.21,1.35.46,2.36.74a21.34,21.34,0,0,1,2.94,1,4.78,4.78,0,0,1,1.91,1.51A4.4,4.4,0,0,1,75,40a4.84,4.84,0,0,1-.72,2.54,5.18,5.18,0,0,1-2.12,1.93A6.91,6.91,0,0,1,68.81,45.19ZM79.75,28.12a1.64,1.64,0,0,1-1.64-1.64,1.59,1.59,0,0,1,.48-1.17,1.57,1.57,0,0,1,1.16-.48,1.47,1.47,0,0,1,1.12.48,1.58,1.58,0,0,1,.47,1.17,1.56,1.56,0,0,1-.47,1.16A1.47,1.47,0,0,1,79.75,28.12Zm1.17,2.36V45H78.51V30.48Zm21.57-.27a6.21,6.21,0,0,1,3,.72,5,5,0,0,1,2.1,2.09,7.08,7.08,0,0,1,.77,3.42V45H106V36.79a4.61,4.61,0,0,0-1.09-3.32A3.7,3.7,0,0,0,102,32.31a3.83,3.83,0,0,0-3,1.22A4.9,4.9,0,0,0,97.91,37v8H95.52V36.79a4.66,4.66,0,0,0-1.08-3.32,3.74,3.74,0,0,0-2.89-1.16,3.85,3.85,0,0,0-3,1.22A4.9,4.9,0,0,0,87.44,37v8H85V30.48h2.41v2.09a4.81,4.81,0,0,1,1.91-1.75A6,6,0,0,1,92,30.21a6.36,6.36,0,0,1,3.23.82,5,5,0,0,1,2.09,2.42,4.78,4.78,0,0,1,2-2.39A6,6,0,0,1,102.49,30.21Zm12.25,2.94a5.75,5.75,0,0,1,2.12-2.06,6.36,6.36,0,0,1,3.32-.85,6.68,6.68,0,0,1,3.49.93,6.51,6.51,0,0,1,2.5,2.62,8.08,8.08,0,0,1,.9,3.9,8.36,8.36,0,0,1-.9,3.92,6.83,6.83,0,0,1-9.28,2.81,6.19,6.19,0,0,1-2.15-2.1v9.57h-2.41V30.48h2.41Zm9.86,4.54a6,6,0,0,0-.66-2.87,4.52,4.52,0,0,0-1.8-1.85,5,5,0,0,0-2.47-.64,4.82,4.82,0,0,0-4.26,2.55,5.72,5.72,0,0,0-.67,2.83,6,6,0,0,0,.67,2.89,5,5,0,0,0,1.8,1.88,5.07,5.07,0,0,0,4.93,0,4.73,4.73,0,0,0,1.8-1.88A6.12,6.12,0,0,0,124.6,37.69Zm8.05-12.3V45h-2.41V25.39ZM150,37.18a12.47,12.47,0,0,1-.08,1.46h-11.6A4.51,4.51,0,0,0,143,43.2a4.43,4.43,0,0,0,2.6-.72,3.85,3.85,0,0,0,1.48-2h2.6a6.32,6.32,0,0,1-2.33,3.42,7.08,7.08,0,0,1-4.35,1.3,7.41,7.41,0,0,1-3.71-.93,6.67,6.67,0,0,1-2.54-2.62,9,9,0,0,1,0-7.93,6.23,6.23,0,0,1,2.52-2.59,7.52,7.52,0,0,1,3.76-.93,7.3,7.3,0,0,1,3.66.9,6.16,6.16,0,0,1,2.44,2.49A7.18,7.18,0,0,1,150,37.18Zm-2.49-.5a4.34,4.34,0,0,0-.61-2.36,3.82,3.82,0,0,0-1.67-1.51,5,5,0,0,0-2.3-.53,4.52,4.52,0,0,0-3.13,1.17,4.77,4.77,0,0,0-1.46,3.23Zm10.82,8.56a7.71,7.71,0,0,1-3-.56,5.22,5.22,0,0,1-2.09-1.59,4.28,4.28,0,0,1-.85-2.36h2.49a2.46,2.46,0,0,0,1,1.78,3.93,3.93,0,0,0,2.41.69,3.52,3.52,0,0,0,2.17-.61,1.88,1.88,0,0,0,.8-1.54,1.5,1.5,0,0,0-.85-1.4,11.33,11.33,0,0,0-2.62-.93,21.48,21.48,0,0,1-2.65-.85,5,5,0,0,1-1.75-1.3,3.72,3.72,0,0,1-.06-4.32,4.46,4.46,0,0,1,1.89-1.45,6.63,6.63,0,0,1,2.78-.56,5.94,5.94,0,0,1,3.89,1.22,4.37,4.37,0,0,1,1.59,3.34h-2.41a2.46,2.46,0,0,0-.93-1.83,3.31,3.31,0,0,0-2.22-.69,3.46,3.46,0,0,0-2.07.56,1.71,1.71,0,0,0-.77,1.45,1.69,1.69,0,0,0,.45,1.2,4,4,0,0,0,1.17.74c.48.18,1.13.38,2,.61a18.42,18.42,0,0,1,2.55.85,4.15,4.15,0,0,1,1.66,1.22,3.23,3.23,0,0,1,.75,2.14A3.7,3.7,0,0,1,163,43.2a4.54,4.54,0,0,1-1.88,1.51A6.75,6.75,0,0,1,158.34,45.24Z"/><path class="cls-1" d="M44.7,26.26a2.74,2.74,0,0,0-1.93.8A2.68,2.68,0,0,0,42,29v3.48a10.09,10.09,0,0,1-3,7.14,10.23,10.23,0,0,1-7.19,3H15.65a10.23,10.23,0,0,1-7.19-3,10.09,10.09,0,0,1-3-7.14v-16a10.11,10.11,0,0,1,3-7.14,10.22,10.22,0,0,1,7.19-3H27a2.74,2.74,0,0,0,1.93-.8,2.7,2.7,0,0,0,0-3.84A2.73,2.73,0,0,0,27,.91H15.65A15.7,15.7,0,0,0,4.59,5.46,15.49,15.49,0,0,0,0,16.44v16a15.49,15.49,0,0,0,4.59,11A15.67,15.67,0,0,0,15.65,48H31.79A15.62,15.62,0,0,0,47.44,32.46V29a2.72,2.72,0,0,0-.8-1.92A2.76,2.76,0,0,0,44.7,26.26Z"/><path class="cls-1" d="M51.47,11.4,40.52.53a1.87,1.87,0,0,0-.94-.5,1.8,1.8,0,0,0-1,.11,1.83,1.83,0,0,0-.82.66,1.82,1.82,0,0,0-.31,1V7.33c-11.49,1.05-14.59,12.07-14.59,18a1.83,1.83,0,0,0,.48,1.23,1.85,1.85,0,0,0,1.19.58h.15a1.82,1.82,0,0,0,1.8-1.51c1.18-7,7.85-7.72,11-7.67v5.56a1.77,1.77,0,0,0,.31,1,1.85,1.85,0,0,0,.82.67,1.8,1.8,0,0,0,1,.1,1.86,1.86,0,0,0,.94-.49L51.47,14a1.81,1.81,0,0,0,0-2.56Z"/></g></g></svg>